<svg width="56" height="56" viewBox="0 0 56 56" fill="none" xmlns="http://www.w3.org/2000/svg">
<g clip-path="url(#clip0_6040_46385)">
<path d="M5.25024 1.64062H50.7499V37.6247H5.25024V1.64062Z" fill="#352F79"/>
<path d="M28 1.64062H50.7498V37.6247H28V1.64062Z" fill="#352F79"/>
<path d="M43.6406 33.1404V39.0466H29.8594V33.1404C29.8594 32.2348 30.5944 31.4998 31.5 31.4998H42C42.9056 31.4998 43.6406 32.2348 43.6406 33.1404Z" fill="#EE9E25"/>
<path d="M12.2495 56C11.0873 56 10.2825 54.8115 10.7367 53.7259L17.7366 36.9916C18.0863 36.1558 19.0472 35.7615 19.8832 36.1113C20.7191 36.461 21.1133 37.422 20.7635 38.2579L13.7636 54.9921C13.5006 55.6211 12.8912 56 12.2495 56Z" fill="#14724E"/>
<path d="M43.7505 56C43.1087 56 42.4995 55.6211 42.2363 54.9921L35.2364 38.2579C34.8867 37.4219 35.2809 36.4609 36.1168 36.1113C36.9527 35.7616 37.9137 36.1558 38.2633 36.9917L45.2633 53.7259C45.7173 54.8108 44.9135 56 43.7505 56Z" fill="#14724E"/>
<path d="M29.6406 37.6247V54.359C29.6406 55.2646 28.9056 55.9996 28 55.9996C27.0944 55.9996 26.3594 55.2646 26.3594 54.359V37.6247C26.3594 36.7191 27.0944 35.9841 28 35.9841C28.9056 35.9841 29.6406 36.7191 29.6406 37.6247Z" fill="#14724E"/>
<path d="M29.6406 37.6247V54.359C29.6406 55.2646 28.9056 55.9996 28 55.9996V35.9841C28.9056 35.9841 29.6406 36.7191 29.6406 37.6247Z" fill="#14724E"/>
<path d="M36.6406 8.74993C36.6406 9.65554 35.9056 10.3905 35 10.3905H21.0001C20.0945 10.3905 19.3595 9.65554 19.3595 8.74993C19.3595 7.84431 20.0945 7.10931 21.0001 7.10931H35C35.9056 7.10931 36.6406 7.84431 36.6406 8.74993Z" fill="#EE9E25"/>
<path d="M35 10.3906H28V7.10931H35C35.9056 7.10931 36.6406 7.84431 36.6406 8.74994C36.6406 9.65556 35.9056 10.3906 35 10.3906Z" fill="#EE9E25"/>
<path d="M36.6405 15.7499C36.6405 16.6555 35.9055 17.3905 34.9999 17.3905H12.2501C11.3445 17.3905 10.6095 16.6555 10.6095 15.7499C10.6095 14.8442 11.3445 14.1093 12.2501 14.1093H34.9999C35.9055 14.1093 36.6405 14.8442 36.6405 15.7499Z" fill="#EE9E25"/>
<path d="M35 17.3905H28V14.1093H35C35.9056 14.1093 36.6406 14.8443 36.6406 15.7499C36.6406 16.6555 35.9056 17.3905 35 17.3905Z" fill="#EE9E25"/>
<path d="M45.3905 22.7498C45.3905 23.6555 44.6555 24.3904 43.7499 24.3904H21.0001C20.0945 24.3904 19.3595 23.6555 19.3595 22.7498C19.3595 21.8442 20.0945 21.1092 21.0001 21.1092H43.7499C44.6555 21.1092 45.3905 21.8442 45.3905 22.7498Z" fill="#EE9E25"/>
<path d="M45.3905 22.7498C45.3905 23.6555 44.6555 24.3904 43.7499 24.3904H28V21.1092H43.7499C44.6555 21.1092 45.3905 21.8442 45.3905 22.7498Z" fill="#EE9E25"/>
<path d="M14.0001 24.3905H12.2501C11.3441 24.3905 10.6095 23.6559 10.6095 22.7498C10.6095 21.8438 11.3441 21.1092 12.2501 21.1092H14.0001C14.9062 21.1092 15.6407 21.8438 15.6407 22.7498C15.6407 23.6559 14.9062 24.3905 14.0001 24.3905Z" fill="#EE9E25"/>
<path d="M43.7499 17.3905H41.9999C41.0938 17.3905 40.3593 16.6559 40.3593 15.7499C40.3593 14.8438 41.0938 14.1093 41.9999 14.1093H43.7499C44.6559 14.1093 45.3905 14.8438 45.3905 15.7499C45.3905 16.6559 44.6559 17.3905 43.7499 17.3905Z" fill="#EE9E25"/>
<path d="M50.7499 0H5.25023C4.34461 0 3.60962 0.734994 3.60962 1.64061V37.6247C3.60962 38.5303 4.34461 39.2653 5.25023 39.2653H50.7499C51.6555 39.2653 52.3905 38.5303 52.3905 37.6247V1.64061C52.3905 0.734994 51.6555 0 50.7499 0ZM49.1093 35.9841H6.89084V3.28122H49.1093V35.9841Z" fill="#14724E"/>
<path d="M52.3904 1.64061V37.6247C52.3904 38.5303 51.6554 39.2653 50.7498 39.2653H28V35.9841H49.1092V3.28122H28V0H50.7498C51.6554 0 52.3904 0.734994 52.3904 1.64061Z" fill="#14724E"/>
<path d="M55.8904 37.6247C55.8904 38.5303 55.1554 39.2653 54.2498 39.2653H1.75023C0.844614 39.2653 0.109619 38.5303 0.109619 37.6247C0.109619 36.7191 0.844614 35.9841 1.75023 35.9841H54.2498C55.1554 35.9841 55.8904 36.7191 55.8904 37.6247Z" fill="#14724E"/>
<path d="M55.8904 37.6247C55.8904 38.5303 55.1554 39.2653 54.2498 39.2653H28V35.9841H54.2498C55.1554 35.9841 55.8904 36.7191 55.8904 37.6247Z" fill="#14724E"/>
</g>
<defs>
<clipPath id="clip0_6040_46385">
<rect width="56" height="56" fill="white"/>
</clipPath>
</defs>
</svg>
