<svg width="20" height="20" viewBox="0 0 20 20" fill="none" xmlns="http://www.w3.org/2000/svg">
<path d="M14.45 4.54996C14.2522 4.54996 14.0588 4.60861 13.8944 4.71849C13.7299 4.82837 13.6018 4.98455 13.5261 5.16728C13.4504 5.35 13.4306 5.55107 13.4692 5.74505C13.5078 5.93903 13.603 6.11721 13.7429 6.25707C13.8827 6.39692 14.0609 6.49216 14.2549 6.53074C14.4489 6.56933 14.6499 6.54953 14.8326 6.47384C15.0154 6.39815 15.1715 6.26998 15.2814 6.10553C15.3913 5.94108 15.45 5.74774 15.45 5.54996C15.45 5.28474 15.3446 5.03039 15.1571 4.84285C14.9695 4.65532 14.7152 4.54996 14.45 4.54996ZM18.2833 6.56663C18.2671 5.87521 18.1376 5.19113 17.9 4.54163C17.6881 3.9859 17.3583 3.48269 16.9333 3.06663C16.5206 2.63948 16.0163 2.31177 15.4583 2.10829C14.8105 1.86343 14.1257 1.73097 13.4333 1.71663C12.55 1.66663 12.2666 1.66663 9.99996 1.66663C7.73329 1.66663 7.44996 1.66663 6.56663 1.71663C5.87425 1.73097 5.18941 1.86343 4.54163 2.10829C3.98469 2.31383 3.48074 2.64126 3.06663 3.06663C2.63948 3.47927 2.31177 3.98366 2.10829 4.54163C1.86343 5.18941 1.73097 5.87425 1.71663 6.56663C1.66663 7.44996 1.66663 7.73329 1.66663 9.99996C1.66663 12.2666 1.66663 12.55 1.71663 13.4333C1.73097 14.1257 1.86343 14.8105 2.10829 15.4583C2.31177 16.0163 2.63948 16.5206 3.06663 16.9333C3.48074 17.3587 3.98469 17.6861 4.54163 17.8916C5.18941 18.1365 5.87425 18.269 6.56663 18.2833C7.44996 18.3333 7.73329 18.3333 9.99996 18.3333C12.2666 18.3333 12.55 18.3333 13.4333 18.2833C14.1257 18.269 14.8105 18.1365 15.4583 17.8916C16.0163 17.6881 16.5206 17.3604 16.9333 16.9333C17.3602 16.5188 17.6902 16.0151 17.9 15.4583C18.1376 14.8088 18.2671 14.1247 18.2833 13.4333C18.2833 12.55 18.3333 12.2666 18.3333 9.99996C18.3333 7.73329 18.3333 7.44996 18.2833 6.56663ZM16.7833 13.3333C16.7772 13.8623 16.6814 14.3864 16.5 14.8833C16.3669 15.246 16.1532 15.5736 15.875 15.8416C15.6047 16.117 15.2776 16.3303 14.9166 16.4666C14.4197 16.6481 13.8956 16.7439 13.3666 16.75C12.5333 16.7916 12.225 16.8 10.0333 16.8C7.84163 16.8 7.53329 16.8 6.69996 16.75C6.1507 16.7602 5.60379 16.6757 5.08329 16.5C4.73811 16.3567 4.42609 16.1439 4.16663 15.875C3.89003 15.6072 3.679 15.2793 3.54996 14.9166C3.34651 14.4126 3.23366 13.8766 3.21663 13.3333C3.21663 12.5 3.16663 12.1916 3.16663 9.99996C3.16663 7.80829 3.16663 7.49996 3.21663 6.66663C3.22036 6.12584 3.31908 5.58991 3.50829 5.08329C3.655 4.73155 3.88018 4.41801 4.16663 4.16663C4.4198 3.8801 4.7327 3.65254 5.08329 3.49996C5.59125 3.31666 6.12662 3.22086 6.66663 3.21663C7.49996 3.21663 7.80829 3.16663 9.99996 3.16663C12.1916 3.16663 12.5 3.16663 13.3333 3.21663C13.8623 3.22269 14.3864 3.3185 14.8833 3.49996C15.262 3.6405 15.6019 3.869 15.875 4.16663C16.148 4.42261 16.3614 4.73557 16.5 5.08329C16.6852 5.59074 16.781 6.12644 16.7833 6.66663C16.825 7.49996 16.8333 7.80829 16.8333 9.99996C16.8333 12.1916 16.825 12.5 16.7833 13.3333ZM9.99996 5.72496C9.1548 5.72661 8.32909 5.97873 7.62717 6.44947C6.92525 6.92022 6.37861 7.58846 6.05632 8.36975C5.73403 9.15105 5.65056 10.0103 5.81645 10.8391C5.98235 11.6678 6.39016 12.4287 6.98836 13.0258C7.58656 13.6228 8.3483 14.0291 9.17734 14.1934C10.0064 14.3577 10.8655 14.2725 11.6462 13.9487C12.4269 13.6249 13.094 13.077 13.5634 12.3742C14.0328 11.6713 14.2833 10.8451 14.2833 9.99996C14.2844 9.43755 14.1743 8.88047 13.9593 8.36076C13.7444 7.84105 13.4288 7.36897 13.0307 6.97167C12.6326 6.57437 12.1599 6.25969 11.6398 6.04573C11.1197 5.83178 10.5624 5.72276 9.99996 5.72496ZM9.99996 12.775C9.45112 12.775 8.9146 12.6122 8.45825 12.3073C8.00191 12.0024 7.64623 11.569 7.43619 11.0619C7.22616 10.5548 7.17121 9.99688 7.27828 9.45858C7.38535 8.92029 7.64965 8.42583 8.03774 8.03774C8.42583 7.64965 8.92029 7.38535 9.45858 7.27828C9.99688 7.17121 10.5548 7.22616 11.0619 7.43619C11.569 7.64623 12.0024 8.00191 12.3073 8.45825C12.6122 8.9146 12.775 9.45112 12.775 9.99996C12.775 10.3644 12.7032 10.7252 12.5637 11.0619C12.4243 11.3986 12.2199 11.7045 11.9622 11.9622C11.7045 12.2199 11.3986 12.4243 11.0619 12.5637C10.7252 12.7032 10.3644 12.775 9.99996 12.775Z" fill="black"/>
</svg>
