<svg width="56" height="56" viewBox="0 0 56 56" fill="none" xmlns="http://www.w3.org/2000/svg">
<g id="Group">
<g id="Group_2">
<path id="Vector" d="M55.7552 51.8073C54.4263 48.7067 51.388 46.7031 48.0145 46.7031H41.8368L33.3602 55.1797C33.3602 55.6327 33.7275 56 34.1805 56H52.9907C54.0049 56 54.9435 55.4946 55.5018 54.6479C56.0599 53.8013 56.1547 52.7394 55.7552 51.8073Z" fill="#352F79"/>
<path id="Vector_2" d="M39.5974 32.3127C37.5395 29.2541 34.6326 26.9291 31.2 25.5942C26.7509 23.864 23.4915 20.1503 22.3147 15.6278L20.7606 13.981L21.7172 11.5548L22.9729 8.03884C23.6301 6.19905 23.3504 4.14717 22.225 2.5503C21.0997 0.953422 19.2614 0 17.3079 0H12.3264C10.6351 0 9.01276 0.717719 7.87515 1.96908L4.19654 6.01562H1.66965C1.42235 6.01562 1.17516 6.06145 0.951382 6.16656C0.354413 6.44711 0.000366211 7.03347 0.000366211 7.65625V12.5781C0.000366211 14.6839 1.72073 16.4012 3.83516 16.4062C5.25135 16.4096 6.41904 17.4975 6.55051 18.8802L6.15588 19.947C4.32527 24.895 4.89074 30.4578 7.65662 34.9321V49.7186C5.84438 49.7186 4.37537 51.1876 4.37537 52.9998V54.3594C4.37537 55.2654 5.10993 56 6.01599 56H15.8597H36.641C39.9634 56 42.6566 53.3068 42.6566 49.9844V42.5043C42.6566 38.881 41.6202 35.319 39.5974 32.3127Z" fill="#352F79"/>
<g id="Group_3">
<path id="Vector_3" d="M39.5976 32.3127C37.5397 29.2541 34.6328 26.9291 31.2002 25.5942C30.0483 25.1462 28.9769 24.5642 28 23.8708V56H36.6412C39.9635 56 42.6568 53.3068 42.6568 49.9844V42.5043C42.6568 38.881 41.6204 35.3191 39.5976 32.3127Z" fill="#352F79"/>
</g>
<path id="Vector_4" d="M35.5474 40.6875C31.586 40.6875 28.2714 43.5104 27.5091 47.25H25.7037C22.9898 47.25 20.7818 49.458 20.7818 52.1719V56H24.063V52.1719C24.063 51.2672 24.799 50.5312 25.7037 50.5312H28.9849C29.891 50.5312 30.6255 49.7967 30.6255 48.8906C30.6255 46.1767 32.8335 43.9688 35.5474 43.9688C36.4535 43.9688 37.188 43.2342 37.188 42.3281C37.188 41.4221 36.4535 40.6875 35.5474 40.6875Z" fill="#EE9E25"/>
<path id="Vector_5" d="M37.188 42.3281C37.188 41.4221 36.4535 40.6875 35.5474 40.6875C32.1628 40.6875 29.2518 42.749 28 45.6815V50.5312H28.9849C29.891 50.5312 30.6255 49.7967 30.6255 48.8906C30.6255 46.1767 32.8335 43.9688 35.5474 43.9688C36.4535 43.9688 37.188 43.2342 37.188 42.3281Z" fill="#EE9E25"/>
<g id="Group_4">
<path id="Vector_6" d="M15.8599 28.4375C14.9538 28.4375 14.2192 29.1721 14.2192 30.0781V56H17.5005V30.0781C17.5005 29.1721 16.7659 28.4375 15.8599 28.4375Z" fill="#EE9E25"/>
<path id="Vector_7" d="M19.3096 13.1604C19.2209 13.1604 19.13 13.1561 19.0402 13.1478C17.8011 13.0309 16.8763 12.1609 16.6841 10.9312L16.2953 8.4431C16.1553 7.54787 15.3156 6.93548 14.421 7.07548C13.5258 7.21537 12.9135 8.05449 13.0534 8.94972L13.4422 11.4378C13.8671 14.1562 15.9929 16.1562 18.733 16.4146C18.9251 16.4326 19.119 16.4417 19.3096 16.4417C20.4024 16.4417 21.4309 16.1512 22.315 15.6279C22.1303 14.9184 21.9952 14.1896 21.9166 13.4447L21.7174 11.5549C21.332 12.6342 20.4412 13.1604 19.3096 13.1604Z" fill="#EE9E25"/>
</g>
</g>
</g>
</svg>
