<svg width="80" height="80" viewBox="0 0 80 80" fill="none" xmlns="http://www.w3.org/2000/svg">
<g clip-path="url(#clip0_0_10275)">
<path d="M1.9539 46.6673L24.2952 24.3641L46.6772 2.02062C49.2842 -0.582027 53.5262 -0.582027 56.1334 2.02062L56.1956 2.08265C57.3224 3.20796 57.7571 4.84436 57.3304 6.35279C57.0748 7.25622 57.3281 8.22856 57.991 8.89059C58.6541 9.55246 59.6285 9.80512 60.5329 9.55028C62.0443 9.12434 63.6838 9.55793 64.8111 10.6832L69.3672 15.2315C70.4941 16.3568 70.9288 17.9932 70.5019 19.5016C70.2463 20.4051 70.4996 21.3774 71.1625 22.0394C71.8257 22.7012 72.7997 22.9544 73.7044 22.6991C75.2161 22.2732 76.8553 22.7068 77.9827 23.8321L78.0447 23.8938C80.6517 26.4965 80.6517 30.7311 78.0447 33.3338L55.7713 55.5685L33.321 77.9808C32.061 79.2386 30.3819 79.9314 28.5927 79.9314C26.8035 79.9314 25.1244 79.2386 23.8646 77.9808C22.7096 76.8278 22.2952 75.141 22.7833 73.5786C23.0718 72.655 22.8262 71.6574 22.143 70.9752C21.4598 70.293 20.4601 70.0482 19.5355 70.3358C17.9698 70.823 16.2801 70.4093 15.1254 69.2565L10.6934 64.8319C9.5384 63.679 9.12403 61.9921 9.61215 60.4298C9.90059 59.5062 9.65496 58.5085 8.97184 57.8265C8.28856 57.1443 7.28888 56.899 6.36435 57.187C4.79857 57.6741 3.10905 57.2607 1.95421 56.1076C0.693904 54.8496 0 53.1734 0 51.3873C0 49.6014 0.693904 47.925 1.9539 46.6673Z" fill="#14724E"/>
<path d="M1.9539 46.6673L24.2952 24.3641L55.7713 55.5687L33.321 77.9808C32.061 79.2386 30.3819 79.9314 28.5927 79.9314C26.8036 79.9314 25.1244 79.2386 23.8646 77.9808C22.7096 76.8278 22.2952 75.141 22.7833 73.5786C23.0718 72.655 22.8262 71.6574 22.143 70.9752C21.4598 70.293 20.4601 70.0482 19.5355 70.3358C17.9698 70.823 16.2801 70.4093 15.1254 69.2565L10.6934 64.832C9.5384 63.679 9.12403 61.9921 9.61215 60.4298C9.90059 59.5062 9.65496 58.5085 8.97184 57.8265C8.28856 57.1443 7.28888 56.899 6.36435 57.187C4.79857 57.6742 3.10905 57.2607 1.95421 56.1076C0.693903 54.8496 0 53.1734 0 51.3873C0 49.6014 0.693903 47.925 1.9539 46.6673Z" fill="#352F79"/>
<path d="M63.1803 33.3482C63.9171 33.3482 64.6535 33.0673 65.2155 32.5051C66.3396 31.381 66.3396 29.5585 65.2155 28.4345L58.128 21.3468L50.968 14.187C49.8439 13.0629 48.0214 13.0629 46.8974 14.187C45.7733 15.311 45.7733 17.1335 46.8974 18.2576L53.1386 24.4989L61.1449 32.5051C61.7069 33.0673 62.4438 33.3482 63.1803 33.3482Z" fill="#EE9E25"/>
<path d="M53.2888 34.7785C54.0255 34.7785 54.7619 34.4976 55.3239 33.9354C56.448 32.8113 56.448 30.9888 55.3239 29.8647L52.5209 27.0619L49.6249 24.1657C48.5008 23.0416 46.6783 23.0418 45.5542 24.1657C44.4302 25.2897 44.4302 27.1122 45.5542 28.2363L47.9325 30.6144L51.2533 33.9352C51.8153 34.4972 52.552 34.7785 53.2888 34.7785Z" fill="#EE9E25"/>
<path d="M15.5692 45.7166L21.1324 40.1533C22.1092 39.1766 23.4104 38.6384 24.796 38.6384C26.1817 38.6384 27.4828 39.1766 28.4596 40.1533L39.4504 51.1441C40.4271 52.1208 40.9653 53.422 40.9653 54.8076C40.9653 56.1933 40.4271 57.4944 39.4504 58.4712L33.8871 64.0345C32.9104 65.0112 31.6092 65.5494 30.2235 65.5494C28.8379 65.5494 27.5368 65.0112 26.5599 64.0345L15.5692 53.0437C14.5924 52.067 14.0543 50.7658 14.0543 49.3801C14.0543 47.9945 14.5923 46.6933 15.5692 45.7166Z" fill="#EE9E25"/>
<path d="M46.8975 14.1873C48.0216 13.0632 49.8441 13.0632 50.9681 14.1873L58.1281 21.3471L54.0891 25.4495L46.8975 18.2579C45.7736 17.1338 45.7736 15.3113 46.8975 14.1873Z" fill="#EE9E25"/>
<path d="M45.5542 24.1657C46.6782 23.0416 48.5007 23.0416 49.6248 24.1657L52.5032 27.0441L48.4641 31.1465L45.5538 28.2365C44.4302 27.1122 44.4302 25.2899 45.5542 24.1657Z" fill="#EE9E25"/>
</g>
<defs>
<clipPath id="clip0_0_10275">
<rect width="80" height="80" fill="white"/>
</clipPath>
</defs>
</svg>
