<svg width="56" height="56" viewBox="0 0 56 56" fill="none" xmlns="http://www.w3.org/2000/svg">
<g clip-path="url(#clip0_6040_46380)">
<path d="M16.97 50.2664C17.9003 48.0959 20.0272 46.6934 22.3887 46.6934H26.7132L32.647 52.6272C32.647 52.9443 32.3899 53.2014 32.0728 53.2014H18.9052C18.1953 53.2014 17.5382 52.8476 17.1474 52.2549C16.7567 51.6623 16.6903 50.9189 16.97 50.2664Z" fill="#13CF8F"/>
<path d="M28.2811 36.6197C29.7217 34.4786 31.7565 32.851 34.1595 31.9166C37.274 30.7054 39.5556 28.1057 40.3794 24.9399L41.4673 23.787L40.7977 22.0887L39.9186 19.6274C39.4586 18.3395 39.6544 16.9031 40.4422 15.7853C41.23 14.6674 42.5168 14 43.8843 14H47.3715C48.5554 14 49.6911 14.5024 50.4875 15.3784L53.0626 18.2111H54.8315C55.0046 18.2111 55.1776 18.2432 55.3343 18.3167C55.7522 18.5131 56 18.9236 56 19.3596V22.805C56 24.2791 54.7957 25.4813 53.3155 25.4848C52.3242 25.4872 51.5068 26.2487 51.4147 27.2166L51.691 27.9634C52.9725 31.4271 52.5766 35.3212 50.6404 38.4533V48.8042C51.909 48.8042 52.9374 49.8326 52.9374 51.1012V52.0529C52.9374 52.6872 52.4232 53.2014 51.7889 53.2014H44.898H30.3507C28.0249 53.2014 26.1396 51.316 26.1396 48.9903V43.7541C26.1396 41.2176 26.8651 38.7242 28.2811 36.6197Z" fill="#14724E"/>
<path d="M28.2808 36.6196C29.7213 34.4786 31.7562 32.851 34.1591 31.9166C34.9655 31.6029 35.7155 31.1955 36.3994 30.7101V53.2014H30.3503C28.0246 53.2014 26.1392 51.316 26.1392 48.9903V43.7541C26.1392 41.2176 26.8648 38.7242 28.2808 36.6196Z" fill="#E7B963"/>
<path d="M31.116 42.4823C33.8891 42.4823 36.2094 44.4583 36.743 47.0762H38.0068C39.9066 47.0762 41.4523 48.6218 41.4523 50.5216V53.2014H39.1553V50.5216C39.1553 49.8883 38.6401 49.3731 38.0068 49.3731H35.7099C35.0756 49.3731 34.5614 48.8589 34.5614 48.2247C34.5614 46.3248 33.0158 44.7792 31.116 44.7792C30.4817 44.7792 29.9675 44.265 29.9675 43.6307C29.9675 42.9965 30.4817 42.4823 31.116 42.4823Z" fill="#E7B963"/>
<path d="M29.9675 43.6307C29.9675 42.9965 30.4817 42.4823 31.116 42.4823C33.4853 42.4823 35.5231 43.9254 36.3994 45.9782V49.3731H35.7099C35.0756 49.3731 34.5614 48.8589 34.5614 48.2247C34.5614 46.3248 33.0158 44.7792 31.116 44.7792C30.4817 44.7792 29.9675 44.265 29.9675 43.6307Z" fill="#CB9D57"/>
<path d="M44.8977 33.907C45.532 33.907 46.0462 34.4212 46.0462 35.0555V53.2014H43.7492V35.0555C43.7492 34.4212 44.2635 33.907 44.8977 33.907Z" fill="#EE9E25"/>
<path d="M42.4828 23.2126C42.5449 23.2126 42.6086 23.2096 42.6714 23.2038C43.5388 23.122 44.1862 22.5129 44.3207 21.6521L44.5929 19.9104C44.6909 19.2837 45.2787 18.855 45.9049 18.953C46.5316 19.0509 46.9602 19.6383 46.8623 20.265L46.5901 22.0067C46.2927 23.9097 44.8046 25.3098 42.8864 25.4906C42.752 25.5032 42.6162 25.5096 42.4828 25.5096C41.7178 25.5096 40.9978 25.3062 40.379 24.94C40.5082 24.4433 40.6028 23.933 40.6578 23.4116L40.7972 22.0887C41.0671 22.8443 41.6907 23.2126 42.4828 23.2126Z" fill="#EE9E25"/>
<path d="M55.7552 51.8073C54.4263 48.7067 51.388 46.7031 48.0145 46.7031H41.8368L33.3602 55.1797C33.3602 55.6327 33.7275 56 34.1805 56H52.9907C54.0049 56 54.9435 55.4946 55.5018 54.6479C56.0599 53.8013 56.1547 52.7394 55.7552 51.8073Z" fill="#352F79"/>
<path d="M39.5974 32.3127C37.5395 29.2541 34.6326 26.9291 31.2 25.5942C26.7509 23.864 23.4915 20.1503 22.3147 15.6278L20.7606 13.981L21.7172 11.5548L22.9729 8.03884C23.6301 6.19905 23.3504 4.14717 22.225 2.5503C21.0997 0.953422 19.2614 0 17.3079 0H12.3264C10.6351 0 9.01276 0.717719 7.87515 1.96908L4.19654 6.01562H1.66965C1.42235 6.01562 1.17516 6.06145 0.951382 6.16656C0.354413 6.44711 0.000366211 7.03347 0.000366211 7.65625V12.5781C0.000366211 14.6839 1.72073 16.4012 3.83516 16.4062C5.25135 16.4096 6.41904 17.4975 6.55051 18.8802L6.15588 19.947C4.32527 24.895 4.89074 30.4578 7.65662 34.9321V49.7186C5.84438 49.7186 4.37537 51.1876 4.37537 52.9998V54.3594C4.37537 55.2654 5.10993 56 6.01599 56H15.8597H36.641C39.9634 56 42.6566 53.3068 42.6566 49.9844V42.5043C42.6566 38.881 41.6202 35.319 39.5974 32.3127Z" fill="#352F79"/>
<path d="M39.5976 32.3126C37.5397 29.2541 34.6328 26.9291 31.2002 25.5942C30.0483 25.1462 28.9769 24.5642 28 23.8708V56H36.6412C39.9635 56 42.6568 53.3067 42.6568 49.9844V42.5043C42.6568 38.8809 41.6204 35.319 39.5976 32.3126Z" fill="#352F79"/>
<path d="M35.5474 40.6875C31.586 40.6875 28.2714 43.5104 27.5091 47.25H25.7037C22.9898 47.25 20.7818 49.458 20.7818 52.1719V56H24.063V52.1719C24.063 51.2672 24.799 50.5312 25.7037 50.5312H28.9849C29.891 50.5312 30.6255 49.7967 30.6255 48.8906C30.6255 46.1767 32.8335 43.9688 35.5474 43.9688C36.4535 43.9688 37.188 43.2342 37.188 42.3281C37.188 41.4221 36.4535 40.6875 35.5474 40.6875Z" fill="#EE9E25"/>
<path d="M37.188 42.3281C37.188 41.4221 36.4535 40.6875 35.5474 40.6875C32.1628 40.6875 29.2518 42.749 28 45.6815V50.5312H28.9849C29.891 50.5312 30.6255 49.7967 30.6255 48.8906C30.6255 46.1767 32.8335 43.9688 35.5474 43.9688C36.4535 43.9688 37.188 43.2342 37.188 42.3281Z" fill="#EE9E25"/>
<path d="M15.8599 28.4375C14.9538 28.4375 14.2192 29.1721 14.2192 30.0781V56H17.5005V30.0781C17.5005 29.1721 16.7659 28.4375 15.8599 28.4375Z" fill="#EE9E25"/>
<path d="M19.3096 13.1604C19.2209 13.1604 19.13 13.1561 19.0402 13.1478C17.8011 13.0309 16.8763 12.1609 16.6841 10.9312L16.2953 8.4431C16.1553 7.54787 15.3156 6.93548 14.421 7.07548C13.5258 7.21537 12.9135 8.05449 13.0534 8.94972L13.4422 11.4378C13.8671 14.1562 15.9929 16.1562 18.733 16.4146C18.9251 16.4326 19.119 16.4417 19.3096 16.4417C20.4024 16.4417 21.4309 16.1512 22.315 15.6279C22.1303 14.9184 21.9952 14.1896 21.9166 13.4447L21.7174 11.5549C21.332 12.6342 20.4412 13.1604 19.3096 13.1604Z" fill="#EE9E25"/>
</g>
<defs>
<clipPath id="clip0_6040_46380">
<rect width="56" height="56" fill="white"/>
</clipPath>
</defs>
</svg>
