<svg width="176" height="289" viewBox="0 0 176 289" fill="none" xmlns="http://www.w3.org/2000/svg">
<path d="M57.9589 15.1842C61.8245 18.6762 64.7589 26.0969 59.225 26.8797C56.4075 27.2124 55.3152 25.1406 53.4908 23.22C51.3632 20.9469 49.263 21.7126 46.8027 20.2555C45.1658 19.1542 43.8468 17.8212 43.7849 16.1456C43.3923 11.0786 52.4171 12.1491 56.1198 13.8479C56.7361 14.1635 57.3475 14.6739 57.9589 15.1842Z" fill="#EE9E25"/>
<path d="M64.1531 20.8977C65.2654 21.7932 66.6979 22.2657 67.8396 22.0023C69.0815 21.8555 70.0374 20.7796 69.8614 19.5808C69.6048 17.4929 67.2458 16.9374 65.5834 17.3907C64.8573 17.5407 64.1263 17.8839 63.696 18.5767C63.4711 19.3094 64.1531 20.8977 64.1531 20.8977Z" fill="#EE9E25"/>
<path d="M67.779 12.1409C68.3129 11.3747 68.8519 10.4163 68.6737 9.41627C68.6001 8.33981 67.6101 6.99013 66.2854 6.63819C65.1648 6.32561 64.3324 6.74457 63.5995 7.27929C62.8666 7.81401 62.2384 8.27233 61.7045 9.03855C61.0711 9.68902 60.6367 10.571 60.7103 11.6475C61.3135 15.9163 66.7112 13.6734 67.779 12.1409Z" fill="#EE9E25"/>
<path d="M57.8546 9.31383C59.7289 8.5148 60.8983 7.09478 61.1531 5.20682C61.178 4.24298 61.003 3.04663 60.2032 2.11663C56.6992 -1.75935 52.8112 5.23625 54.5957 7.90706C55.3905 9.02983 57.8546 9.31383 57.8546 9.31383Z" fill="#EE9E25"/>
<path d="M49.6766 7.2818C51.2444 6.51859 51.8288 3.81642 51.1512 2.03402C50.8601 1.29774 50.3636 0.521506 49.7521 0.208411C48.6294 -0.301182 47.6877 0.195396 46.9467 0.925169C45.5697 2.30807 44.6698 5.24018 47.3114 6.919C48.2238 7.58188 49.0505 7.54844 49.6766 7.2818Z" fill="#EE9E25"/>
<path d="M19.6547 29.5553C14.7758 30.6455 9.57409 36.3331 14.7272 40.7331C17.3539 42.9913 19.1464 41.4952 21.4355 40.7752C24.2455 39.8653 26.1507 42.0804 28.9363 42.1365C30.795 42.1096 32.5632 41.5795 33.3286 39.8837C35.3143 34.8329 26.1479 29.9439 21.9292 29.415C21.2077 29.3718 20.4863 29.3286 19.6547 29.5553Z" fill="#EE9E25"/>
<path d="M7.89488 30.2032C6.77489 29.3013 6.29448 27.7425 6.83798 26.7738C7.71342 24.9905 10.0786 25.9395 11.3956 27.2705C12.0012 27.9746 12.6069 28.6786 12.6932 29.3792C12.7796 30.0799 12.5486 31.0117 11.712 31.2396C11.6062 31.3166 8.90909 31.1822 7.89488 30.2032Z" fill="#EE9E25"/>
<path d="M11.1468 23.2084C10.8631 22.0762 10.6805 21.0615 11.1195 20.1677C11.5585 19.2738 12.513 18.5781 13.6452 19.0919C14.5751 19.3706 15.2781 20.3885 15.6728 21.2486C16.0675 22.1087 16.5633 23.0863 16.7508 23.9061C17.0394 24.8435 17.3231 25.9757 16.8841 26.8696C15.4365 30.6028 11.6131 25.3554 11.1468 23.2084Z" fill="#EE9E25"/>
<path d="M21.8547 25.7885C20.2291 24.2992 19.3446 22.2698 19.2874 20.4016C19.3117 19.4289 19.4419 18.379 20.2888 17.7619C23.4693 15.2533 26.4783 23.7563 24.8709 25.6915C24.0192 26.5032 21.8547 25.7885 21.8547 25.7885Z" fill="#EE9E25"/>
<path d="M28.3465 28.7959C27.1446 27.1994 27.5236 24.451 28.4866 23.1788C28.913 22.678 29.5453 22.2172 30.3691 22.3776C31.3988 22.5782 32.3038 23.6303 32.6916 24.6789C33.673 26.8164 33.4902 29.9922 30.6979 29.935C29.5628 29.8113 28.8492 29.3804 28.3465 28.7959Z" fill="#EE9E25"/>
<path d="M60.4668 62.6597C64.3325 66.1517 67.2668 73.5724 61.7329 74.3552C58.9154 74.6879 57.8231 72.6161 55.9987 70.6955C53.8711 68.4224 51.7709 69.1881 49.3106 67.731C47.6737 66.6297 46.3547 65.2967 46.2929 63.6211C45.9003 58.5541 54.925 59.6246 58.6277 61.3234C59.244 61.639 59.9614 62.0721 60.4668 62.6597Z" fill="#EE9E25"/>
<path d="M66.6611 68.3731C67.7734 69.2686 69.206 69.7411 70.3476 69.4777C71.5895 69.3309 72.5454 68.255 72.3695 67.0562C72.1129 64.9683 69.7538 64.4128 68.0914 64.8661C67.3653 65.0161 66.6344 65.3593 66.2041 66.0521C66.0843 66.7082 66.6611 68.3731 66.6611 68.3731Z" fill="#EE9E25"/>
<path d="M70.2862 59.6152C70.82 58.8491 71.3591 57.8908 71.1809 56.8909C71.1074 55.8146 70.1177 54.4652 68.7932 54.1134C67.6728 53.801 66.8405 54.2199 66.1077 54.7546C65.3748 55.2893 64.7467 55.7476 64.2129 56.5137C63.5795 57.1641 63.1452 58.046 63.2187 59.1223C63.722 63.2746 69.119 61.0317 70.2862 59.6152Z" fill="#EE9E25"/>
<path d="M60.4642 56.7116C62.2334 55.9891 63.5078 54.4926 63.7625 52.6047C63.7874 51.6409 63.6124 50.4446 62.8127 49.5146C59.3089 45.6389 55.421 52.6342 57.2054 55.3049C57.8952 56.5041 60.4642 56.7116 60.4642 56.7116Z" fill="#EE9E25"/>
<path d="M52.2859 54.6797C53.8536 53.9165 54.4381 51.2144 53.7605 49.432C53.4694 48.6957 52.9728 47.9195 52.3613 47.6064C51.2386 47.0968 50.297 47.5933 49.5559 48.3231C48.179 49.706 47.279 52.6381 49.9207 54.3169C50.7327 54.8632 51.5546 55.023 52.2859 54.6797Z" fill="#EE9E25"/>
<path d="M13.148 78.5705C8.16991 79.3509 2.55868 84.7688 7.6062 89.4429C10.13 91.7799 12.0241 90.3996 14.4152 89.796C17.3276 89.0024 19.0241 91.3728 22.0174 91.4694C23.9779 91.5593 25.6421 91.1059 26.4079 89.4088C28.5952 84.5878 19.5361 79.2304 15.3189 78.5071C14.7021 78.3871 13.8749 78.4204 13.148 78.5705Z" fill="#EE9E25"/>
<path d="M1.17769 78.785C0.163401 77.8059 -0.317042 76.247 0.226524 75.2782C1.203 73.6121 3.56841 74.5612 4.77974 75.9694C5.3854 76.6735 5.88526 77.4547 5.97164 78.1554C6.15896 78.9734 5.62025 79.7478 4.88936 79.8985C4.88936 79.8985 2.19199 79.7641 1.17769 78.785Z" fill="#EE9E25"/>
<path d="M4.83805 72.0739C4.65548 71.0599 4.4778 69.8511 4.91639 68.958C5.35497 68.0648 6.40981 67.4872 7.44018 67.8833C8.47054 68.2794 8.96614 69.2564 9.36066 70.116C9.75518 70.9755 10.0437 71.9122 10.3323 72.849C10.6208 73.7858 10.7985 74.9945 10.4659 75.8104C8.81263 79.5006 5.2032 74.1019 4.83805 72.0739Z" fill="#EE9E25"/>
<path d="M15.338 75.0098C13.8193 73.4444 12.9353 71.4165 13.0847 69.5898C13.109 68.6179 13.4457 67.6091 14.1861 67.0696C17.465 64.6804 20.1599 73.2141 18.3472 75.1075C17.6019 75.8414 15.338 75.0098 15.338 75.0098Z" fill="#EE9E25"/>
<path d="M21.8328 78.2188C20.7375 76.5471 21.1164 73.801 22.3849 72.6867C22.8109 72.1862 23.5432 71.8426 24.3663 72.0028C25.3951 72.2031 26.194 73.3309 26.5813 74.3787C27.3559 76.4742 27.0677 79.7241 24.2826 79.4736C23.0432 79.4268 22.3303 78.9963 21.8328 78.2188Z" fill="#EE9E25"/>
<path d="M63.8417 101.681C68.4699 101.706 75.878 105.559 73.6002 110.053C72.4064 112.434 70.1699 111.421 67.8084 111.254C64.9327 111.085 64.4678 113.124 61.8815 113.687C60.2288 113.948 58.4814 113.9 56.974 112.544C52.856 108.747 58.4543 103.154 61.7797 101.862C62.3988 101.788 63.0179 101.715 63.8417 101.681Z" fill="#EE9E25"/>
<path d="M71.202 101.325C72.444 101.179 73.6958 100.645 74.1359 99.5663C74.5761 98.4871 74.3047 96.9784 73.1923 96.0827C71.3732 94.5644 69.6911 95.7904 69.2363 97.4491C69.0113 98.1819 68.9918 98.9546 69.1776 99.7672C69.5736 100.427 71.202 101.325 71.202 101.325Z" fill="#EE9E25"/>
<path d="M66.5068 91.4169C66.1181 90.3657 65.7294 89.3146 64.8174 88.4542C63.7998 87.6707 62.3548 87.3892 61.409 87.8877C60.564 88.5034 60.3335 89.4339 60.4149 90.3276C60.3908 91.2983 60.4722 92.192 60.7601 93.126C60.9424 94.1369 61.3311 95.188 62.2479 95.8543C66.0015 99.2191 67.1834 93.4019 66.5068 91.4169Z" fill="#EE9E25"/>
<path d="M59.4366 96.4839C59.7981 94.5012 59.2262 92.4346 57.8121 90.7906C57.1051 89.9686 56.0852 89.1835 54.9449 89.0593C49.9699 88.482 53.292 96.9499 56.4914 97.8659C57.7327 98.1076 59.4366 96.4839 59.4366 96.4839Z" fill="#EE9E25"/>
<path d="M53.6861 101.129C53.9375 99.416 52.0263 96.793 50.384 95.8863C49.6665 95.4531 48.7369 95.1745 48.1056 95.4432C47.1613 95.749 47.0258 96.9952 47.2083 98.0095C47.5685 100.233 49.4698 103.246 52.086 102.678C53.1363 102.295 53.5653 101.791 53.6861 101.129Z" fill="#EE9E25"/>
<path d="M65.9758 225.192C65.1313 229.968 68.2147 238.12 74.1112 237.035C77.2143 236.474 76.5597 233.926 76.7245 231.537C77.1093 228.609 79.6827 228.624 80.877 226.241C81.5366 224.625 81.7864 222.93 80.4921 221.227C76.8142 216.156 68.9839 220.352 66.8452 223.424C66.4255 223.73 66.1007 224.345 65.9758 225.192Z" fill="#EE9E25"/>
<path d="M62.7466 235.565C61.6055 235.828 60.0737 235.24 59.2774 234.115C57.9852 232.215 59.7715 230.913 61.4231 230.846C62.249 230.812 63.0748 230.779 63.8859 231.324C64.6969 231.87 65.1928 232.645 65.073 233.301C65.073 233.301 63.9878 235.418 62.7466 235.565Z" fill="#EE9E25"/>
<path d="M57.8502 227.822C56.721 227.309 55.6976 226.719 54.9962 225.704C54.2948 224.689 54.1173 223.482 54.9631 222.866C55.7033 222.327 56.6355 222.411 57.6686 222.612C58.596 222.89 59.5234 223.168 60.5517 223.564C61.5799 223.959 62.6034 224.549 63.2039 225.447C65.9085 229.391 59.7962 228.884 57.8502 227.822Z" fill="#EE9E25"/>
<path d="M63.927 220.401C62.0512 220.623 59.8822 220.103 58.1463 218.885C57.2278 218.218 56.42 217.279 56.1317 216.343C55.0987 211.94 63.8465 215.304 64.9232 217.957C65.4135 219.127 63.927 220.401 63.927 220.401Z" fill="#EE9E25"/>
<path d="M68.6361 216.773C66.7675 216.605 64.3266 214.369 63.6386 212.767C63.3452 212.025 63.1577 211.206 63.6926 210.625C64.2324 209.849 65.4798 209.896 66.6163 210.215C68.7833 210.93 71.6383 213.247 70.5391 215.577C69.9944 216.548 69.4644 216.934 68.6361 216.773Z" fill="#EE9E25"/>
<path d="M114.645 217.547C119.08 216.76 126.81 219.41 125.34 224.438C124.655 227.011 122.309 226.462 120.047 226.605C117.266 226.938 117.104 229.128 114.821 230.04C113.266 230.61 111.617 230.871 110.004 229.787C105.368 226.575 109.65 220.061 112.676 218.23C113.404 217.887 114.027 217.621 114.645 217.547Z" fill="#EE9E25"/>
<path d="M121.724 215.818C122.866 215.555 123.918 214.788 124.258 213.592C124.492 212.472 124.015 210.923 122.792 210.297C120.862 209.047 119.375 210.7 119.231 212.323C119.211 213.096 119.192 213.869 119.688 214.645C119.985 215.188 121.724 215.818 121.724 215.818Z" fill="#EE9E25"/>
<path d="M115.614 206.618C115.119 205.642 114.523 204.549 113.499 203.959C112.475 203.369 110.922 203.164 110.07 203.975C109.325 204.71 109.402 205.799 109.589 206.617C109.771 207.63 110.06 208.566 110.454 209.424C110.843 210.477 111.338 211.453 112.362 212.043C116.454 214.598 116.504 208.452 115.614 206.618Z" fill="#EE9E25"/>
<path d="M109.773 212.932C109.721 210.866 108.835 208.835 107.309 207.461C106.495 206.716 105.262 206.084 104.116 206.155C99.222 206.28 104.011 214.454 107.122 214.863C108.476 214.833 109.773 212.932 109.773 212.932Z" fill="#EE9E25"/>
<path d="M105.129 218.706C105.072 216.836 102.738 214.523 100.985 213.888C100.263 213.65 99.4351 213.489 98.6982 213.834C97.9564 214.375 97.927 215.543 98.2106 216.675C98.8838 218.861 101.208 221.563 103.626 220.566C104.782 220.106 105.115 219.29 105.129 218.706Z" fill="#EE9E25"/>
<path d="M114.404 275.761C111.437 279.244 110.705 287.309 117.127 288.835C120.388 289.656 120.864 287.238 122.146 285.361C123.747 283.063 126.385 284.151 128.479 282.623C129.839 281.63 130.902 280.29 130.342 278.252C129.059 272.598 119.413 272.671 115.979 274.423C115.456 274.805 114.828 275.263 114.404 275.761Z" fill="#EE9E25"/>
<path d="M106.49 282.846C105.153 282.488 103.937 281.473 103.659 280.154C103.301 277.943 105.48 277.686 107.329 278.241C108.148 278.595 108.967 278.949 109.57 279.65C110.174 280.352 110.255 281.244 109.929 281.861C109.723 281.821 107.725 283.087 106.49 282.846Z" fill="#EE9E25"/>
<path d="M104.839 274.43C104.028 273.487 103.319 272.661 103.035 271.525C102.853 270.507 103.198 269.297 104.248 269.107C105.089 268.876 106.118 269.469 107.041 270.139C107.862 270.691 108.678 271.438 109.393 272.068C110.209 272.816 111.02 273.759 111.203 274.777C112.241 279.007 106.365 276.003 104.839 274.43Z" fill="#EE9E25"/>
<path d="M114.128 270.848C112.055 270.25 110.21 268.911 109.106 267.223C108.503 266.321 108.011 265.145 108.244 264.208C109.081 260.146 116.327 266.559 116.256 269.296C116.226 270.468 114.128 270.848 114.128 270.848Z" fill="#EE9E25"/>
<path d="M120.466 270.144C118.719 269.315 117.232 266.384 117.377 264.749C117.397 263.97 117.724 263.349 118.254 262.963C119.097 262.54 120.33 263.171 121.249 263.839C123.083 265.37 124.878 268.459 122.657 269.886C122.017 270.544 121.184 270.578 120.466 270.144Z" fill="#EE9E25"/>
<path d="M163.098 267.707C166.456 265.069 173.972 264.491 175.16 270.037C175.701 272.848 173.532 273.299 171.756 274.405C169.561 275.818 170.427 278.015 169.039 279.97C168.081 281.235 166.724 282.036 164.884 281.681C159.674 280.578 160.203 272.271 161.826 269.201C162.15 268.587 162.574 268.089 163.098 267.707Z" fill="#EE9E25"/>
<path d="M168.255 262.77C169.105 261.96 169.551 260.682 169.268 259.554C168.99 258.232 167.877 257.137 166.537 256.778C164.267 256.336 163.901 258.508 164.482 260.182C164.775 260.922 165.168 261.779 165.778 262.288C166.488 262.914 168.255 262.77 168.255 262.77Z" fill="#EE9E25"/>
<path d="M159.177 256.441C158.362 255.694 157.34 254.907 156.095 254.666C154.951 254.542 153.584 254.963 153.347 256.094C153.114 257.03 153.504 258.087 154.107 258.988C154.709 259.89 155.317 260.596 156.026 261.421C156.734 262.245 157.757 263.032 158.795 263.233C163.573 263.964 160.808 257.934 159.177 256.441Z" fill="#EE9E25"/>
<path d="M157.332 265.291C156.446 263.26 154.718 261.652 152.759 260.977C151.728 260.581 150.587 260.457 149.638 260.957C145.732 263.23 153.386 269.122 156.011 268.165C157.167 267.705 157.332 265.291 157.332 265.291Z" fill="#EE9E25"/>
<path d="M156.005 273.07C155.217 271.353 152.135 269.971 150.471 270.038C149.64 270.072 149.01 270.34 148.582 270.843C148.144 271.734 148.74 272.827 149.547 273.766C151.061 275.526 154.34 277.337 155.846 275.285C156.384 274.511 156.298 273.811 156.005 273.07Z" fill="#EE9E25"/>
<path d="M28.8581 143.077C25.1856 145.944 23.0312 153.552 29.234 156.007C32.3852 157.292 33.2644 155.142 34.9511 153.534C37.057 151.621 39.485 153.057 41.9794 151.992C43.6406 151.346 44.8034 150.121 44.7548 148.081C44.4941 142.424 34.565 140.989 30.8388 142.009C30.2152 142.276 29.4868 142.618 28.8581 143.077Z" fill="#EE9E25"/>
<path d="M19.3919 148.337C18.0586 147.785 17.0515 146.614 17.0852 145.256C17.1383 143.123 19.4167 143.177 21.0522 144.08C21.7668 144.512 22.5822 145.06 22.9802 145.723C23.4789 146.502 23.4548 147.472 22.9271 147.856C23.0278 147.973 20.7253 148.889 19.3919 148.337Z" fill="#EE9E25"/>
<path d="M19.3691 140.067C18.7657 139.164 18.1676 138.065 18.0921 136.968C18.0166 135.872 18.6717 134.818 19.7171 134.823C20.7624 134.829 21.5789 135.577 22.2941 136.207C23.1106 136.954 23.7192 137.662 24.4291 138.488C25.1391 139.314 25.7372 140.413 25.8179 141.314C26.0134 145.777 20.5758 141.874 19.3691 140.067Z" fill="#EE9E25"/>
<path d="M29.3386 138.318C27.3771 137.447 25.7503 135.757 24.8584 133.914C24.3618 132.934 24.1846 131.721 24.5193 130.901C26.1824 127.195 32.2588 134.463 31.6705 137.002C31.5334 138.252 29.3386 138.318 29.3386 138.318Z" fill="#EE9E25"/>
<path d="M35.9951 138.772C34.3606 137.673 33.5007 134.672 33.8521 133.08C33.9724 132.419 34.4053 131.722 35.1362 131.571C36.1796 131.384 37.3045 132.091 38.0111 132.913C39.631 134.596 40.7938 137.948 38.3799 138.944C37.5383 139.366 36.7114 139.205 35.9951 138.772Z" fill="#EE9E25"/>
<path d="M79.6297 166.159C84.4565 166.805 91.24 171.514 88.2502 175.587C86.7552 177.623 84.5191 176.414 82.0582 175.936C79.1871 175.379 78.3123 177.342 75.6314 177.403C73.8759 177.547 72.1352 177.112 70.8343 175.6C67.232 171.411 73.6379 166.741 77.2639 165.991C78.1892 166.074 78.8094 166 79.6297 166.159Z" fill="#EE9E25"/>
<path d="M87.1773 166.874C88.4136 166.92 89.7648 166.503 90.4051 165.658C91.1504 164.735 90.9846 163.151 89.9781 162.18C88.3707 160.51 86.4892 161.502 85.8342 162.927C85.5091 163.543 85.2842 164.275 85.4698 165.087C85.6553 165.899 87.1773 166.874 87.1773 166.874Z" fill="#EE9E25"/>
<path d="M83.79 156.728C83.6082 155.719 83.3257 154.593 82.5211 153.658C81.7165 152.722 80.1788 152.131 79.1295 152.705C78.1905 153.009 77.8549 154.014 77.8308 154.983C77.706 155.835 77.6819 156.803 77.7632 157.695C77.8396 158.781 78.0214 159.79 78.8309 160.531C82.0543 164.079 84.1537 158.745 83.79 156.728Z" fill="#EE9E25"/>
<path d="M75.8001 160.515C76.4686 158.692 76.2095 156.59 75.0082 154.794C74.4076 153.896 73.4945 153.034 72.3601 152.715C67.3037 151.438 69.5802 160.085 72.5601 161.349C73.8963 161.902 75.8001 160.515 75.8001 160.515Z" fill="#EE9E25"/>
<path d="M69.3436 164.115C69.8014 162.444 68.3105 159.709 66.7806 158.532C66.1696 158.022 65.3469 157.666 64.6153 157.817C63.571 158.005 63.229 159.209 63.2046 160.182C63.1509 162.323 64.733 165.564 67.4424 165.309C68.4818 165.316 69.0162 164.736 69.3436 164.115Z" fill="#EE9E25"/>
</svg>
