<svg width="176" height="327" viewBox="0 0 176 327" fill="none" xmlns="http://www.w3.org/2000/svg">
<g opacity="0.4">
<path d="M163.953 13.8596C161.141 9.22036 153.961 5.32206 151.824 11.5499C150.691 14.654 152.804 16.2229 154.356 18.3306C156.264 20.9604 154.915 23.4078 156.025 26.2284C156.801 28.2183 157.868 29.7843 159.679 30.0594C164.984 30.8648 166.108 20.4271 164.977 16.0432C164.762 15.3864 164.428 14.5557 163.953 13.8596Z" fill="#EE9E25"/>
<path d="M158.694 1.94752C159.179 0.617284 160.279 -0.151677 161.443 0.0251153C163.373 0.47412 163.459 2.98303 162.693 4.58268C162.38 5.31515 161.808 6.00834 161.258 6.39282C160.579 6.75766 159.684 6.4658 159.21 5.76982C159.199 5.92417 158.348 3.14304 158.694 1.94752Z" fill="#EE9E25"/>
<path d="M166.113 3.61135C167.056 3.13461 167.989 2.81121 168.889 2.94781C169.918 3.10392 170.893 4.02671 170.946 5.11957C170.999 6.21243 170.42 7.05439 169.734 7.57016C169.037 8.23926 168.48 8.77455 167.665 9.2708C166.851 9.76706 166.036 10.2633 165.136 10.1267C161.149 9.52177 164.483 4.60387 166.113 3.61135Z" fill="#EE9E25"/>
<path d="M167.848 15.1096C168.631 13.2144 170.025 11.8766 171.75 11.3637C172.682 11.0404 173.722 11.0432 174.461 11.6201C177.922 14.1591 171.33 19.2011 169.069 18.0835C168.073 17.4675 167.848 15.1096 167.848 15.1096Z" fill="#EE9E25"/>
<path d="M167.594 22.6128C168.612 21.0667 171.233 20.6913 172.731 21.5366C173.363 21.7869 173.962 22.496 174.165 23.2997C174.475 24.4287 173.747 25.5549 172.923 26.2028C171.403 27.5182 168.374 28.1411 167.401 25.3659C167.102 24.0839 167.295 23.1857 167.594 22.6128Z" fill="#EE9E25"/>
<path d="M154.402 60.6672C154.693 65.8675 151.557 73.2043 147.075 69.8676C144.839 68.122 145.52 65.8816 145.575 63.2337C145.662 60.1219 143.631 59.1887 142.908 56.4226C142.52 54.4887 142.52 52.6137 143.655 51.3797C146.941 47.5033 152.6 54.6123 154.036 58.424C154.252 59.0818 154.327 59.8745 154.402 60.6672Z" fill="#EE9E25"/>
<path d="M154.784 69.084C154.945 70.5027 155.63 71.8462 156.627 72.4621C157.612 73.2314 159.048 73.1394 159.767 72.1639C161.053 70.4999 159.768 68.4457 158.268 67.5984C157.646 67.1942 156.885 66.9239 156.092 67.1134C155.417 67.4757 154.784 69.084 154.784 69.084Z" fill="#EE9E25"/>
<path d="M163.52 65.4128C164.439 65.2439 165.496 64.9422 166.073 64.1062C166.778 63.2896 167.024 61.6343 166.33 60.4523C165.754 59.4419 164.867 59.1541 163.971 59.0184C163.074 58.8828 162.305 58.7665 161.387 58.9354C160.479 58.952 159.55 59.2731 158.845 60.0897C156.271 63.5471 161.684 65.7505 163.52 65.4128Z" fill="#EE9E25"/>
<path d="M158.458 56.4229C160.351 57.1736 162.181 56.9873 163.69 55.825C164.386 55.1577 165.103 54.1846 165.189 52.9612C165.426 47.7424 157.743 49.9779 157.132 53.1309C156.907 54.4877 158.458 56.4229 158.458 56.4229Z" fill="#EE9E25"/>
<path d="M154.076 49.2262C155.727 49.7868 158.043 48.278 158.816 46.5349C159.127 45.807 159.32 44.9061 159.106 44.2535C158.667 43.1017 157.648 42.7922 156.608 42.7894C154.657 42.8033 151.955 44.2536 152.651 47.3047C152.833 48.4175 153.444 48.9752 154.076 49.2262Z" fill="#EE9E25"/>
<path d="M117.077 43.9332C112.844 41.2757 105.147 41.6578 105.713 48.409C105.991 51.8612 108.317 52.0592 110.45 53.1579C113.087 54.488 112.882 57.4021 114.822 59.4015C116.161 60.6898 117.79 61.557 119.527 60.8905C124.491 58.6987 121.417 48.7769 118.792 45.4334C118.31 44.8953 117.827 44.3571 117.077 43.9332Z" fill="#EE9E25"/>
<path d="M108.266 36.1211C108.104 34.6925 108.86 33.2469 109.927 32.941C111.804 32.2898 112.817 34.6279 112.816 36.5C112.751 37.4263 112.686 38.3525 112.255 38.9111C111.823 39.4696 111.004 39.9693 110.249 39.5426C110.119 39.523 108.298 37.5302 108.266 36.1211Z" fill="#EE9E25"/>
<path d="M115.497 33.4388C116.092 32.4347 116.676 31.5853 117.616 31.2591C118.557 30.9328 119.725 31.1099 120.168 32.2714C120.632 33.1235 120.416 34.3413 120.091 35.2301C119.767 36.1188 119.431 37.1622 118.988 37.8766C118.533 38.7457 117.938 39.7497 116.998 40.076C113.343 41.7102 114.318 35.2922 115.497 33.4388Z" fill="#EE9E25"/>
<path d="M121.29 42.8044C121.183 40.6027 121.982 38.5386 123.255 37.171C123.957 36.497 124.788 35.8426 125.824 35.9999C129.848 36.4548 126.005 44.6129 123.501 44.8573C122.325 44.8348 121.29 42.8044 121.29 42.8044Z" fill="#EE9E25"/>
<path d="M123.787 49.5077C124.056 47.528 126.259 45.8418 127.838 45.6153C128.493 45.5594 129.267 45.6768 129.739 46.3703C130.33 47.2371 130.232 48.6213 129.77 49.6391C128.964 51.8482 126.6 53.9761 124.656 51.9712C123.937 51.0848 123.733 50.2767 123.787 49.5077Z" fill="#EE9E25"/>
<path d="M122.788 96.1635C123.078 101.364 119.943 108.701 115.46 105.364C113.224 103.618 113.905 101.378 113.96 98.73C114.047 95.6182 112.017 94.685 111.294 91.919C110.905 89.985 110.906 88.1101 112.04 86.876C115.326 82.9996 120.985 90.1086 122.421 93.9203C122.637 94.5781 122.842 95.3905 122.788 96.1635Z" fill="#EE9E25"/>
<path d="M123.17 104.58C123.33 105.999 124.015 107.342 125.012 107.958C125.998 108.728 127.434 108.636 128.152 107.66C129.438 105.996 128.153 103.942 126.653 103.095C126.031 102.69 125.271 102.42 124.478 102.61C123.931 102.991 123.17 104.58 123.17 104.58Z" fill="#EE9E25"/>
<path d="M131.906 100.908C132.824 100.739 133.881 100.437 134.458 99.6014C135.163 98.785 135.409 97.13 134.715 95.9483C134.139 94.9381 133.253 94.6503 132.356 94.5147C131.459 94.3791 130.691 94.2629 129.772 94.4317C128.865 94.4483 127.936 94.7694 127.231 95.5858C124.668 98.8902 130.08 101.093 131.906 100.908Z" fill="#EE9E25"/>
<path d="M126.97 91.9353C128.735 92.6665 130.693 92.4997 132.202 91.3375C132.898 90.6703 133.615 89.6972 133.701 88.4739C133.938 83.2553 126.255 85.4907 125.644 88.6435C125.29 89.9808 126.97 91.9353 126.97 91.9353Z" fill="#EE9E25"/>
<path d="M122.588 84.7388C124.239 85.2993 126.555 83.7905 127.328 82.0474C127.639 81.3195 127.832 80.4187 127.618 79.7661C127.178 78.6142 126.16 78.3047 125.12 78.3019C123.169 78.3159 120.467 79.7661 121.163 82.8172C121.356 83.7766 121.827 84.4682 122.588 84.7388Z" fill="#EE9E25"/>
<path d="M77.9745 74.1823C73.8885 71.235 66.0904 71.1373 66.3888 78.009C66.5381 81.4448 68.8549 81.7965 70.9784 83.0497C73.6059 84.5345 73.1439 87.4121 75.2027 89.5864C76.5324 91.0293 78.0339 91.8778 79.7718 91.2107C84.7172 89.3239 82.0491 79.1448 79.5616 75.6644C79.2078 75.1452 78.5965 74.587 77.9745 74.1823Z" fill="#EE9E25"/>
<path d="M69.3185 65.9143C69.2866 64.5052 70.0419 63.0595 71.1096 62.7536C72.9753 62.2567 73.9884 64.595 73.8585 66.4476C73.7935 67.3739 73.5991 68.2806 73.1676 68.8392C72.7253 69.5522 71.7978 69.7235 71.1724 69.3164C71.1724 69.3164 69.3505 67.3235 69.3185 65.9143Z" fill="#EE9E25"/>
<path d="M76.6401 63.7208C77.2237 62.8719 77.9477 61.8881 78.8876 61.562C79.8276 61.2359 80.9834 61.5675 81.4368 62.5738C81.8903 63.58 81.5551 64.6228 81.2308 65.5111C80.9065 66.3993 80.4526 67.2678 79.9986 68.1364C79.5447 69.005 78.8206 69.9888 78.0104 70.3345C74.2398 71.7935 75.473 65.4186 76.6401 63.7208Z" fill="#EE9E25"/>
<path d="M82.0353 73.193C82.0574 71.0124 82.8558 68.9497 84.2469 67.7569C84.9479 67.0834 85.8968 66.6035 86.8023 66.741C90.8127 67.35 86.7245 75.309 84.1046 75.3792C83.0589 75.3764 82.0353 73.193 82.0353 73.193Z" fill="#EE9E25"/>
<path d="M84.3926 80.0418C84.7903 78.0834 86.9913 76.3988 88.6764 76.4994C89.3312 76.4435 90.0933 76.7145 90.5653 77.4073C91.1555 78.2733 90.9297 79.6366 90.4678 80.6535C89.5441 82.6873 87.0533 84.7937 85.2506 82.6566C84.4029 81.7515 84.1992 80.9441 84.3926 80.0418Z" fill="#EE9E25"/>
<path d="M97.7366 126.263C101.008 129.536 103.561 137.485 98.7809 139.076C96.2572 139.928 95.3811 137.635 93.8205 135.855C91.8965 133.712 90.132 134.833 87.8977 133.415C86.5401 132.437 85.3322 131.174 85.2152 129.15C84.9601 123.556 92.8724 123.52 96.1438 124.941C96.6356 125.324 97.1273 125.707 97.7366 126.263Z" fill="#EE9E25"/>
<path d="M103.216 131.188C104.202 131.957 105.466 132.459 106.538 132.002C107.61 131.545 108.479 130.282 108.318 128.863C108.094 126.504 106.036 126.192 104.546 127.051C103.871 127.413 103.313 127.949 102.874 128.657C102.691 129.404 103.216 131.188 103.216 131.188Z" fill="#EE9E25"/>
<path d="M106.85 120.845C107.313 119.825 107.777 118.804 107.734 117.551C107.562 116.279 106.733 115.062 105.711 114.751C104.677 114.594 103.859 115.093 103.288 115.786C102.588 116.458 102.017 117.151 101.565 118.017C100.983 118.863 100.52 119.883 100.703 121.002C101.003 126.033 105.935 122.731 106.85 120.845Z" fill="#EE9E25"/>
<path d="M98.2623 119.471C99.9139 118.317 100.961 116.446 101.113 114.284C101.189 113.202 101.016 111.927 100.294 111.037C97.1649 107.127 93.5686 115.48 95.1975 118.382C95.9095 119.427 98.2623 119.471 98.2623 119.471Z" fill="#EE9E25"/>
<path d="M90.9089 118.727C92.2926 117.687 92.7798 114.478 92.2507 112.679C92.0456 111.866 91.5812 111.015 90.9436 110.761C90.0575 110.314 89.0846 111.104 88.5008 111.954C87.1926 113.787 86.4243 117.265 88.6826 118.702C89.6984 119.168 90.3577 119.112 90.9089 118.727Z" fill="#EE9E25"/>
<path d="M12.3692 215.521C8.40991 218.32 4.86639 226.281 9.81895 229.658C12.4182 231.443 13.7455 229.172 15.5433 227.59C17.8762 225.781 19.6944 227.601 22.2196 226.748C23.8246 226.064 25.1943 225.036 25.4731 222.915C26.427 216.725 17.9115 214.198 14.231 214.876C13.7175 214.798 13.0541 215.007 12.3692 215.521Z" fill="#EE9E25"/>
<path d="M2.77856 220.619C1.78256 220.004 1.10816 218.508 1.33348 217.149C1.75186 214.89 3.93691 215.221 5.1577 216.336C5.76809 216.893 6.3785 217.45 6.57103 218.408C6.76357 219.366 6.57051 220.266 6.02412 220.647C6.02412 220.647 3.76379 221.388 2.77856 220.619Z" fill="#EE9E25"/>
<path d="M4.74624 211.674C4.30469 210.515 3.99248 209.376 4.20836 208.161C4.42425 206.946 5.1466 205.964 6.18117 206.121C7.08642 206.259 7.68974 206.974 8.28224 207.844C8.74542 208.694 9.2086 209.544 9.66096 210.548C10.1133 211.553 10.4256 212.692 10.2205 213.752C9.36777 218.457 5.3815 213.797 4.74624 211.674Z" fill="#EE9E25"/>
<path d="M14.2837 210.676C12.7954 209.514 11.62 207.618 11.243 205.532C11.0599 204.412 11.1465 203.176 11.5998 202.309C13.9633 198.454 17.8122 206.997 16.7112 209.64C16.2362 210.816 14.2837 210.676 14.2837 210.676Z" fill="#EE9E25"/>
<path d="M20.1822 211.41C18.9725 209.977 18.8113 206.671 19.4492 205.049C19.7628 204.315 20.206 203.601 20.9947 203.564C21.924 203.393 22.7773 204.304 23.3604 205.33C24.3971 207.362 24.7959 211.017 22.3754 211.899C21.3056 212.206 20.6574 212.107 20.1822 211.41Z" fill="#EE9E25"/>
<path d="M52.3276 244.325C56.0324 246.886 59.661 254.206 55.0792 256.745C52.7829 258.091 51.5021 256.05 49.7939 254.561C47.5839 252.841 45.9283 254.284 43.6647 253.326C42.1592 252.636 40.8033 251.662 40.4194 249.757C39.3852 244.214 47.0102 242.597 50.4484 243.425C51.2065 243.693 51.8365 243.943 52.3276 244.325Z" fill="#EE9E25"/>
<path d="M58.5736 248.076C59.5705 248.692 60.857 248.888 61.9401 248.277C62.8945 247.646 63.6454 246.21 63.2169 244.905C62.7243 242.659 60.5049 242.788 59.261 243.839C58.7033 244.375 58.1457 244.91 57.9524 245.811C57.7807 246.405 58.5736 248.076 58.5736 248.076Z" fill="#EE9E25"/>
<path d="M60.7044 237.242C61.039 236.2 61.3845 235.004 61.072 233.864C60.7596 232.725 59.8 231.487 58.6243 231.464C57.5781 231.461 56.866 232.289 56.4236 233.003C55.8409 233.85 55.3877 234.718 55.0639 235.605C54.5998 236.627 54.2651 237.669 54.5776 238.808C55.6872 243.502 60.0459 239.17 60.7044 237.242Z" fill="#EE9E25"/>
<path d="M52.1122 237.618C53.5282 236.114 54.3284 234.048 54.21 231.998C54.1563 230.896 53.7244 229.581 52.8601 228.824C49.295 225.47 46.9477 234.647 48.8706 237.127C49.8537 238.057 52.1122 237.618 52.1122 237.618Z" fill="#EE9E25"/>
<path d="M44.7516 238.455C46.0266 237.086 45.9952 233.8 45.1963 232.117C44.8508 231.439 44.3757 230.742 43.6088 230.469C42.7014 230.332 41.8587 231.141 41.2643 232.145C40.2051 234.171 39.9556 237.727 42.375 238.719C43.5199 239.205 44.3302 238.859 44.7516 238.455Z" fill="#EE9E25"/>
<path d="M11.2061 285.517C6.64765 285.905 0.45454 291.12 3.94377 296.722C5.68302 299.599 7.72238 298.216 9.95363 297.785C12.708 297.278 13.8175 299.906 16.3794 300.294C18.0447 300.546 19.7421 300.341 20.7781 298.498C23.8433 293.579 16.9383 286.845 13.2664 285.675C12.6259 285.578 11.8573 285.462 11.2061 285.517Z" fill="#EE9E25"/>
<path d="M0.599025 284.984C-0.0989122 283.79 -0.24887 282.213 0.481948 281.08C1.78232 279.257 3.51152 280.608 4.43491 282.302C4.7677 283.13 5.10049 283.958 5.03577 284.881C4.97106 285.804 4.4015 286.494 3.7354 286.704C3.61728 286.531 1.30775 286.025 0.599025 284.984Z" fill="#EE9E25"/>
<path d="M5.34684 277.843C5.43407 276.603 5.51038 275.517 6.1079 274.511C6.69452 273.659 7.79145 273.042 8.67085 273.645C9.43086 274.074 9.74544 275.218 9.92973 276.343C10.1249 277.313 10.1789 278.419 10.2438 279.369C10.2978 280.474 10.2106 281.715 9.62394 282.566C7.38594 286.302 5.32451 280.034 5.34684 277.843Z" fill="#EE9E25"/>
<path d="M14.4659 281.832C13.4137 279.949 13.0453 277.7 13.4474 275.724C13.6538 274.659 14.1316 273.478 14.9565 272.976C18.4081 270.679 19.0458 280.332 17.0703 282.227C16.2236 283.039 14.4659 281.832 14.4659 281.832Z" fill="#EE9E25"/>
<path d="M19.4645 285.791C18.8061 283.973 19.8115 280.844 21.0649 279.785C21.6268 279.245 22.2966 279.034 22.9447 279.133C23.8412 279.425 24.2729 280.74 24.4563 281.862C24.6825 284.24 23.7849 287.697 21.2033 287.149C20.2851 287.166 19.6695 286.604 19.4645 285.791Z" fill="#EE9E25"/>
<path d="M51.47 314.049C55.7115 314.536 61.4582 319.412 58.4012 324.188C56.8086 326.567 54.9499 325.361 52.9093 324.898C50.356 324.358 49.4258 326.528 47.0645 326.941C45.4939 327.166 43.9662 326.78 42.9089 325.234C39.9827 320.785 46.2024 315.254 49.5148 314.215C50.1773 314.007 50.829 313.952 51.47 314.049Z" fill="#EE9E25"/>
<path d="M58.6067 314.168C59.7802 314.191 60.9969 313.597 61.5894 312.596C62.3218 311.461 62.3007 309.9 61.6012 308.703C60.299 306.791 58.5115 308.078 57.7467 309.675C57.4343 310.407 57.111 311.293 57.1862 312.083C57.2505 313.028 58.6067 314.168 58.6067 314.168Z" fill="#EE9E25"/>
<path d="M56.6091 303.286C56.5552 302.182 56.3822 300.904 55.6675 299.856C54.9418 298.963 53.6745 298.302 52.7101 298.938C51.8866 299.439 51.4205 300.464 51.2144 301.529C51.0083 302.593 50.9431 303.523 50.8669 304.607C50.7908 305.691 50.9638 306.97 51.5594 307.842C54.4402 311.723 56.7169 305.494 56.6091 303.286Z" fill="#EE9E25"/>
<path d="M49.0722 308.276C49.8722 306.21 49.7756 303.851 48.8579 301.994C48.4045 300.987 47.6809 300.096 46.6548 299.784C42.28 298.652 43.5737 308.222 46.112 309.389C47.2569 309.875 49.0722 308.276 49.0722 308.276Z" fill="#EE9E25"/>
<path d="M42.6577 312.869C43.3052 311.095 42.0876 307.946 40.8585 306.823C40.244 306.261 39.6079 306.009 38.95 306.065C38.0118 306.391 37.6663 307.586 37.5797 308.821C37.4173 311.137 38.4731 314.73 40.9858 314.332C41.9133 314.16 42.3448 313.602 42.6577 312.869Z" fill="#EE9E25"/>
<path d="M43.7603 131.066C39.1339 130.52 32.2517 134.41 34.9319 140.518C36.2666 143.648 38.4039 142.738 40.7332 142.783C43.5753 142.905 44.2905 145.633 46.8118 146.631C48.4464 147.341 50.1347 147.288 51.5348 145.805C55.3291 141.602 49.2837 133.598 45.9185 131.701C45.2882 131.452 44.5296 131.183 43.7603 131.066Z" fill="#EE9E25"/>
<path d="M33.334 128.145C32.775 126.815 32.883 125.274 33.8622 124.333C35.4009 122.855 36.9817 124.496 37.5083 126.288C37.7124 127.098 37.9058 128.061 37.7227 128.811C37.5288 129.716 36.8294 130.388 36.184 130.29C36.1732 130.444 33.893 129.475 33.334 128.145Z" fill="#EE9E25"/>
<path d="M39.1353 122.253C39.3421 121.187 39.6903 119.985 40.408 119.153C41.1257 118.321 42.3324 118.033 43.0713 118.772C43.8103 119.511 43.8644 120.617 43.9293 121.567C43.9833 122.673 43.9179 123.604 43.8415 124.69C43.7651 125.776 43.4169 126.978 42.8406 127.675C39.8394 130.984 38.7216 124.386 39.1353 122.253Z" fill="#EE9E25"/>
<path d="M47.449 128.023C46.668 126.025 46.7011 123.679 47.3638 121.743C47.7005 120.697 48.4281 119.71 49.2422 119.363C53.0309 117.9 52.236 127.338 50.0322 128.728C49.0551 129.52 47.449 128.023 47.449 128.023Z" fill="#EE9E25"/>
<path d="M51.8591 133.028C51.4715 131.097 52.9712 128.36 54.341 127.476C54.8911 127.092 55.6891 126.901 56.3145 127.308C57.1878 127.908 57.4894 129.202 57.4136 130.283C57.3806 132.619 55.8484 135.819 53.4331 134.828C52.5381 134.536 52.0638 133.84 51.8591 133.028Z" fill="#EE9E25"/>
<path d="M63.5971 183.182C66.5722 187.036 68.0795 195.154 63.0903 195.944C60.5958 196.34 59.8577 193.907 58.4451 191.837C56.7971 189.421 54.7949 190.2 52.847 188.358C51.4983 187.226 50.5674 185.692 50.7071 183.702C51.094 178.192 58.9304 179.38 62.0346 181.398C62.6339 182.108 63.1262 182.492 63.5971 183.182Z" fill="#EE9E25"/>
<path d="M68.4574 188.999C69.3034 189.901 70.5564 190.556 71.6062 190.405C72.7845 190.274 73.781 189.032 73.7493 187.634C73.7821 185.316 71.7471 184.698 70.2794 185.25C69.6153 185.458 68.9403 185.821 68.501 186.528C68.0616 187.235 68.4574 188.999 68.4574 188.999Z" fill="#EE9E25"/>
<path d="M73.1878 179.407C73.7682 178.562 74.3594 177.564 74.4457 176.333C74.532 175.103 73.8556 173.601 72.706 173.271C71.8251 172.826 70.8795 173.304 70.1809 173.975C69.4932 174.493 68.7946 175.164 68.225 175.855C67.5156 176.68 66.9352 177.525 66.9886 178.621C66.7831 183.409 72.027 181.096 73.1878 179.407Z" fill="#EE9E25"/>
<path d="M64.8467 176.478C66.6042 175.652 67.8983 173.977 68.3086 171.856C68.5137 170.795 68.4709 169.54 67.8891 168.516C65.1952 164.051 60.7299 171.797 61.958 174.791C62.5182 176.124 64.8467 176.478 64.8467 176.478Z" fill="#EE9E25"/>
<path d="M57.7269 174.494C59.2275 173.628 60.0919 170.637 59.8333 168.724C59.758 167.931 59.4236 167.1 58.7977 166.693C57.9236 166.091 56.8332 166.707 56.1314 167.381C54.5874 168.864 53.4315 172.28 55.5358 174.005C56.2696 174.741 57.0576 174.704 57.7269 174.494Z" fill="#EE9E25"/>
</g>
</svg>
