<svg width="20" height="20" viewBox="0 0 20 20" fill="none" xmlns="http://www.w3.org/2000/svg">
<path d="M17.4166 1.66663H2.58329C2.34018 1.66663 2.10702 1.7632 1.93511 1.93511C1.7632 2.10702 1.66663 2.34018 1.66663 2.58329V17.4166C1.66663 17.537 1.69034 17.6562 1.7364 17.7674C1.78247 17.8786 1.84999 17.9797 1.93511 18.0648C2.02023 18.1499 2.12128 18.2174 2.2325 18.2635C2.34371 18.3096 2.46291 18.3333 2.58329 18.3333H10.5666V11.875H8.39996V9.37496H10.5666V7.49996C10.5217 7.05976 10.5737 6.61507 10.7189 6.19707C10.8641 5.77908 11.0989 5.39791 11.407 5.0803C11.7151 4.76269 12.0889 4.51633 12.5023 4.35849C12.9157 4.20066 13.3586 4.13517 13.8 4.16663C14.4486 4.16263 15.0969 4.19602 15.7416 4.26663V6.51663H14.4166C13.3666 6.51663 13.1666 7.01663 13.1666 7.74163V9.34996H15.6666L15.3416 11.85H13.1666V18.3333H17.4166C17.537 18.3333 17.6562 18.3096 17.7674 18.2635C17.8786 18.2174 17.9797 18.1499 18.0648 18.0648C18.1499 17.9797 18.2174 17.8786 18.2635 17.7674C18.3096 17.6562 18.3333 17.537 18.3333 17.4166V2.58329C18.3333 2.46291 18.3096 2.34371 18.2635 2.2325C18.2174 2.12128 18.1499 2.02023 18.0648 1.93511C17.9797 1.84999 17.8786 1.78247 17.7674 1.7364C17.6562 1.69034 17.537 1.66663 17.4166 1.66663Z" fill="black"/>
</svg>
