<svg width="80" height="80" viewBox="0 0 80 80" fill="none" xmlns="http://www.w3.org/2000/svg">
<path d="M65.568 28.1195V77.6562C65.568 78.9685 64.5365 80 63.2242 80H16.3438C15.0315 80 14 78.9685 14 77.6562V28.1195L19.1099 23.4314H61.9114L65.568 28.1195Z" fill="#352F79"/>
<path d="M65.568 28.1195V77.6562C65.568 78.9685 64.5365 80 63.2242 80H39.7837V23.4314H61.9114L65.568 28.1195Z" fill="#352F79"/>
<path d="M65.568 16.3995V28.1195H14V16.3995C14 15.0867 15.0315 14.0558 16.3438 14.0558H35.0962L39.7837 18.7433L44.4718 14.0558H63.2242C64.5365 14.0558 65.568 15.0867 65.568 16.3995Z" fill="#14724E"/>
<path d="M65.568 16.3995V28.1195H39.7837V18.7433L44.4718 14.0558H63.2242C64.5365 14.0558 65.568 15.0867 65.568 16.3995Z" fill="#14724E"/>
<path d="M53.2853 3.83544L41.5654 17.8998C41.1436 18.4155 40.4875 18.7433 39.7837 18.7433C39.0806 18.7433 38.4245 18.4155 38.0027 17.8998L26.2828 3.83544C25.4386 2.85095 25.579 1.3507 26.5641 0.554193C27.5486 -0.289923 29.0489 -0.148932 29.8454 0.835565L39.7837 12.7429L49.7227 0.835565C50.5192 -0.148932 52.0195 -0.289923 53.004 0.554193C53.9891 1.3507 54.1294 2.85095 53.2853 3.83544Z" fill="#EE9E25"/>
<path d="M41.5653 17.8998C41.1436 18.4155 40.4874 18.7433 39.7837 18.7433V12.7429L49.7227 0.835565C50.5192 -0.148932 52.0194 -0.289923 53.0039 0.554193C53.989 1.3507 54.1294 2.85095 53.2853 3.83544L41.5653 17.8998Z" fill="#EE9E25"/>
<path d="M56.0514 49.9811C55.77 49.1846 55.0669 48.5748 54.2228 48.4338L45.7377 47.1216L41.8937 39.0112C41.5183 38.2141 40.6278 37.7924 39.7837 37.7924C38.9402 37.7924 38.0497 38.2141 37.6743 39.0112L33.8303 47.1216L25.3452 48.4338C24.5011 48.5748 23.798 49.184 23.5166 49.9811C23.2353 50.8252 23.4226 51.7627 24.0324 52.3718L30.2671 58.7476L28.7675 67.7484C28.6265 68.6395 29.0019 69.53 29.752 70.0458C30.4551 70.5615 31.4396 70.6085 32.2367 70.1868L39.7843 66.0144L47.3319 70.1868C48.1291 70.6085 49.0666 70.5615 49.8167 70.0458C50.5668 69.53 50.9422 68.6395 50.8012 67.7484L49.3015 58.7476L55.5363 52.3718C56.1448 51.7627 56.3328 50.8252 56.0514 49.9811Z" fill="#EE9E25"/>
<path d="M55.5356 52.3718L49.3009 58.7476L50.8005 67.7484C50.9415 68.6395 50.5662 69.53 49.816 70.0458C49.0659 70.5615 48.1284 70.6085 47.3313 70.1868L39.7837 66.0144V37.7924C40.6278 37.7924 41.5183 38.2141 41.8937 39.0112L45.7377 47.1216L54.2228 48.4338C55.0669 48.5748 55.77 49.184 56.0508 49.9811C56.3328 50.8252 56.1448 51.7627 55.5356 52.3718Z" fill="#EE9E25"/>
<path d="M44.4718 14.0558H35.0962C33.7833 14.0558 32.7518 15.0867 32.7518 16.3995V21.0876C32.7518 21.6968 32.9862 22.3065 33.4556 22.7283L38.1431 27.4164C38.5648 27.8851 39.1746 28.1195 39.7837 28.1195C40.3934 28.1195 41.0026 27.8851 41.4243 27.4164L46.1124 22.7283C46.5818 22.3065 46.8162 21.6968 46.8162 21.0876V16.3995C46.8162 15.0867 45.7847 14.0558 44.4718 14.0558Z" fill="#352F79"/>
<path d="M41.4243 27.4164C41.0026 27.8851 40.3934 28.1195 39.7837 28.1195V14.0558H44.4718C45.7847 14.0558 46.8162 15.0867 46.8162 16.3995V21.0876C46.8162 21.6968 46.5818 22.3065 46.1124 22.7283L41.4243 27.4164Z" fill="#352F79"/>
</svg>
