<svg width="56" height="56" viewBox="0 0 56 56" fill="none" xmlns="http://www.w3.org/2000/svg">
<g clip-path="url(#clip0_6040_46390)">
<path d="M36.9447 18.8123L51.1773 15.8563C51.6745 15.7529 52.1916 15.8858 52.5779 16.2155C52.964 16.5455 53.1758 17.0354 53.1515 17.5428L52.2757 35.8262C52.2338 36.7016 51.5117 37.3898 50.6353 37.3898C48.195 37.3898 45.9096 36.7327 43.8425 35.4369C42.0839 34.3345 40.5202 32.7943 39.1946 30.8594C36.5683 27.0259 35.6365 22.84 35.6365 20.4201C35.6365 19.642 36.1827 18.9705 36.9447 18.8123Z" fill="#352F79"/>
<path d="M2.50932 17.7235C2.85835 17.3762 3.34478 17.203 3.83471 17.2539L18.8337 18.7866C19.6716 18.8722 20.3089 19.578 20.3089 20.4203C20.3089 22.8403 19.377 27.0262 16.7508 30.8597C15.4252 32.7945 13.8613 34.3346 12.1029 35.4371C10.0358 36.7329 7.75042 37.39 5.31008 37.39C4.46477 37.39 3.75752 36.7484 3.67563 35.907L2.03341 19.0468C1.98557 18.5566 2.1603 18.0708 2.50932 17.7235Z" fill="#352F79"/>
<path d="M0.0257646 11.8718C-0.114153 11.0887 0.327167 10.318 1.0735 10.0423L27.4038 0.318908C27.771 0.18337 28.1744 0.18337 28.5416 0.318908L54.8719 10.0423C55.6182 10.318 56.0596 11.0887 55.9197 11.8718C55.7796 12.6548 55.0986 13.225 54.3031 13.225H1.64248C0.846876 13.2251 0.165791 12.655 0.0257646 11.8718Z" fill="#EE9E25"/>
<path d="M46.1913 54.1404C46.1913 52.9579 46.261 48.7696 47.1588 44.5227C47.5862 42.5008 48.142 40.77 48.8109 39.3784C49.176 38.6187 49.5799 37.9505 50.0205 37.3765C44.9407 34.2851 42.4631 28.8775 42.4631 20.9285C42.4631 20.0215 43.1984 19.2863 44.1054 19.2863H54.3579C55.2648 19.2863 56.0001 20.0215 56.0001 20.9285V54.1404C56.0001 55.0474 55.2648 55.7827 54.3579 55.7827H47.8335C46.9266 55.7827 46.1913 55.0475 46.1913 54.1404Z" fill="#352F79"/>
<path d="M0.000244141 53.6515V20.4396C0.000244141 19.5326 0.735522 18.7973 1.64247 18.7973H11.895C12.8019 18.7973 13.5372 19.5326 13.5372 20.4396C13.5372 28.3886 11.0596 33.7962 5.97979 36.8876C6.42035 37.4616 6.82433 38.1298 7.18946 38.8895C7.85828 40.2811 8.41412 42.012 8.84153 44.0338C9.73928 48.2807 9.80902 52.469 9.80902 53.6515C9.80902 54.5585 9.07374 55.2938 8.1668 55.2938H1.64247C0.735412 55.2938 0.000244141 54.5585 0.000244141 53.6515Z" fill="#352F79"/>
<path d="M0.000244141 20.4394V11.5828C0.000244141 10.6759 0.735522 9.94061 1.64247 9.94061H54.3031C55.21 9.94061 55.9453 10.6759 55.9453 11.5828V20.4394C55.9453 21.3464 55.21 22.0817 54.3031 22.0817H1.64247C0.735412 22.0817 0.000244141 21.3464 0.000244141 20.4394Z" fill="#14724E"/>
<path d="M28.5416 0.318932L54.8719 10.0423C55.6182 10.318 56.0596 11.0887 55.9197 11.8719C55.7797 12.6549 55.0986 13.225 54.3031 13.225H27.9728V0.217224C28.1654 0.217224 28.358 0.251163 28.5416 0.318932Z" fill="#EE9E25"/>
<path d="M54.3031 9.9407C55.21 9.9407 55.9453 10.676 55.9453 11.5829V20.4395C55.9453 21.3465 55.21 22.0818 54.3031 22.0818H27.9728V9.9407H54.3031Z" fill="#14724E"/>
</g>
<defs>
<clipPath id="clip0_6040_46390">
<rect width="56" height="56" fill="white"/>
</clipPath>
</defs>
</svg>
